<?xml version="1.0" encoding="UTF-8"?>
<svg id="Ebene_2" data-name="Ebene 2" xmlns="http://www.w3.org/2000/svg" viewBox="0 0 1000 1000">
  <defs>
    <style>
      .cls-1 {
        fill: #b7937b;
      }

      .cls-1, .cls-2, .cls-3, .cls-4, .cls-5, .cls-6, .cls-7, .cls-8, .cls-9, .cls-10, .cls-11 {
        stroke-width: 0px;
      }

      .cls-2 {
        fill: #232322;
      }

      .cls-12, .cls-13, .cls-14, .cls-15, .cls-16, .cls-17, .cls-18, .cls-19 {
        stroke: #000;
        stroke-miterlimit: 10;
      }

      .cls-12, .cls-15 {
        stroke-width: 5px;
      }

      .cls-12, .cls-19 {
        fill: none;
      }

      .cls-3 {
        fill: #2b261f;
      }

      .cls-4 {
        fill: #0f0d0a;
      }

      .cls-13, .cls-14, .cls-10 {
        fill: #fff;
      }

      .cls-13, .cls-16 {
        stroke-width: 2px;
      }

      .cls-14 {
        stroke-width: 4px;
      }

      .cls-5 {
        fill: #66401d;
      }

      .cls-20 {
        letter-spacing: -.01em;
      }

      .cls-21 {
        font-family: CMGSans-SemiBoldCAPS, 'CMG Sans';
        font-size: 3px;
        font-weight: 600;
      }

      .cls-21, .cls-7 {
        fill: #000;
      }

      .cls-15 {
        fill: #253f15;
      }

      .cls-6 {
        fill: #999;
      }

      .cls-22 {
        letter-spacing: -.04em;
      }

      .cls-8 {
        fill: #c1977a;
      }

      .cls-16 {
        fill: #14210c;
      }

      .cls-17 {
        fill: #333;
      }

      .cls-18 {
        fill: #badee2;
      }

      .cls-9 {
        fill: #332e29;
      }

      .cls-19 {
        stroke-width: 6px;
      }

      .cls-23 {
        letter-spacing: -.06em;
      }

      .cls-11 {
        fill: #51301a;
      }
    </style>
  </defs>
  <rect class="cls-18" y="2" width="1000" height="1000"/>
  <rect class="cls-10" width="1000" height="1000"/>
  <g id="Hat">
    <rect class="cls-3" x="254.5" y="51" width="491" height="272" rx="49.64" ry="49.64"/>
    <rect class="cls-9" x="254.5" y="162" width="491" height="95.29"/>
    <ellipse class="cls-4" cx="500" cy="352.98" rx="340.25" ry="178.02"/>
    <ellipse class="cls-2" cx="500" cy="360" rx="183" ry="95.75"/>
  </g>
  <rect class="cls-1" x="399.5" y="592" width="201" height="314.22" rx="91.06" ry="91.06"/>
  <rect class="cls-8" x="302" y="278" width="397" height="454" rx="157.11" ry="157.11"/>
  <g id="Shirt_with_stripes" data-name="Shirt with stripes">
    <path id="Shirt" class="cls-15" d="M877.98,911.54v-42.02c0-37.57-30.8-68.02-68.8-68.02H194.48c-38,0-68.8,30.45-68.8,68.02v84.04c0,2.29.12,4.56.34,6.79v95.65h752.31v-144.46h-.34Z"/>
    <polygon class="cls-5" points="470.88 933.74 462.81 941.72 348.18 828.4 356.25 820.42 470.88 933.74"/>
    <polygon class="cls-5" points="530.79 933.44 538.86 941.42 653.48 828.09 645.41 820.11 530.79 933.44"/>
    <rect class="cls-17" x="331" y="870" width="11" height="184" rx="5.5" ry="5.5"/>
    <rect class="cls-16" x="223.5" y="924.5" width="125" height="129"/>
    <rect class="cls-6" x="336" y="884" width="6.66" height="46"/>
    <text class="cls-21" transform="translate(341.05 929.19) rotate(-90)"><tspan x="0" y="0">Dei Mum is </tspan><tspan class="cls-22" x="18.87" y="0">W</tspan><tspan x="22.19" y="0">a</tspan><tspan class="cls-23" x="24.44" y="0">l</tspan><tspan x="26.04" y="0">ter </tspan><tspan class="cls-20" x="32.88" y="0">W</tspan><tspan x="36.26" y="0">hite</tspan></text>
  </g>
  <path class="cls-11" d="M435.01,560h129.98c36.85,0,66.76,29.91,66.76,66.76v18.74c0,69.27-56.23,125.5-125.5,125.5h-12.5c-69.27,0-125.5-56.23-125.5-125.5v-18.74c0-36.85,29.91-66.76,66.76-66.76Z"/>
  <g id="Expression">
    <circle class="cls-13" cx="408.34" cy="431.07" r="60.07"/>
    <circle class="cls-13" cx="592.24" cy="431.07" r="60.07"/>
  </g>
  <g id="Brille">
    <path class="cls-19" d="M475,418.58s24.23-34,51,0"/>
    <rect class="cls-12" x="334" y="371.16" width="140.89" height="130.66" rx="12" ry="12"/>
    <rect class="cls-12" x="525.96" y="371.34" width="140.89" height="130.66" rx="12" ry="12"/>
  </g>
  <path id="Mouth_Black" data-name="Mouth Black" class="cls-14" d="M424.6,609.41h150.79c2.75,0,4.98,2.23,4.98,4.98h0c0,31.24-25.37,56.61-56.61,56.61h-47.75c-31.12,0-56.39-25.27-56.39-56.39v-.22c0-2.75,2.23-4.98,4.98-4.98Z"/>
  <rect id="Braue_R" data-name="Braue R" class="cls-11" x="530.69" y="359.22" width="123.31" height="30.41" rx="7.66" ry="7.66" transform="translate(1184.69 748.85) rotate(180)"/>
  <rect id="Braue_L" data-name="Braue L" class="cls-11" x="346.69" y="359" width="123.31" height="30.41" rx="7.66" ry="7.66" transform="translate(816.68 748.41) rotate(180)"/>
  <circle id="Apfel_L" data-name="Apfel L" class="cls-7" cx="435.93" cy="432.92" r="27.92"/>
  <circle id="Apfel_R" data-name="Apfel R" class="cls-7" cx="564.08" cy="432.92" r="27.92"/>
</svg>