<?xml version="1.0" encoding="UTF-8"?>
<svg id="Ebene_2" data-name="Ebene 2" xmlns="http://www.w3.org/2000/svg" version="1.1" viewBox="0 0 1132.4 1188.3">
  <defs>
    <style>
      .cls-1 {
        fill: #211c18;
      }

      .cls-1, .cls-2, .cls-3, .cls-4, .cls-5, .cls-6, .cls-7, .cls-8, .cls-9 {
        stroke-width: 0px;
      }

      .cls-2 {
        fill: #66401d;
      }

      .cls-3 {
        fill: #dbaf83;
      }

      .cls-4 {
        fill: #c65868;
      }

      .cls-5 {
        fill: #000;
      }

      .cls-6 {
        fill: #f7cca6;
      }

      .cls-7 {
        fill: #351f06;
      }

      .cls-8 {
        fill: #fff;
      }

      .cls-9 {
        fill: #8e8885;
      }
    </style>
  </defs>
  <rect class="cls-8" x="80.4" y="15.3" width="1008.8" height="1050.6"/>
  <g id="Ebene_2-2" data-name="Ebene 2-2">
    <rect class="cls-3" x="442.8" y="721.3" width="274" height="258.5"/>
    <path class="cls-7" d="M914,936.8v-37.2c0-33.3-27-60.3-60.3-60.3H315.3c-33.3,0-60.3,27-60.3,60.3v74.5c0,2,.1,4,.3,6v84.8h659v-128h-.3Z"/>
    <rect class="cls-3" x="492.8" y="745.7" width="184.1" height="184.2" transform="translate(-421.1 658.9) rotate(-45)"/>
    <path class="cls-6" d="M389,323.8h381.7c14.4,0,26.2,11.7,26.2,26.1v204.4c0,119.8-97.2,217-217,217h0c-119.8,0-217-97.2-217-217v-204.4c0-14.4,11.7-26.1,26.1-26.1h0Z"/>
    <g id="Expression">
      <circle class="cls-1" cx="505.6" cy="482.3" r="31.5"/>
      <path class="cls-1" d="M687.6,482.3c0,17.4-14.1,31.5-31.5,31.5s-31.5-14.1-31.5-31.5,14.1-31.5,31.5-31.5,31.5,14.1,31.5,31.5Z"/>
    </g>
    <rect class="cls-9" x="281.2" y="88.8" width="606.2" height="275" rx="72.1" ry="72.1"/>
    <path class="cls-2" d="M486.2,401.2l72.3,46.6c3.6,2.3,4.6,7,2.3,10.6h0c-2.3,3.6-7,4.6-10.6,2.3l-72.3-46.6c-3.6-2.3-4.6-7-2.3-10.6h0c2.3-3.6,7-4.6,10.6-2.3Z"/>
    <path class="cls-5" d="M488.4,610.8h182.9c3.6,0,6.6,2.9,6.6,6.6v29.8c0,41.2-33.5,74.7-74.7,74.7h-47c-41,0-74.4-33.3-74.4-74.4v-30.1c0-3.6,2.9-6.6,6.6-6.6h0Z"/>
    <path class="cls-8" d="M488.4,612.8h182.9c2.5,0,4.6,2,4.6,4.6v12.4h-192v-12.4c0-2.5,2-4.6,4.6-4.6Z"/>
    <path class="cls-4" d="M588.4,664.8h-17c-26.7,0-49,19.1-54,44.4,11.2,6.8,24.3,10.6,38.3,10.6h47c14.5,0,28-4.2,39.5-11.3-5.2-25-27.3-43.7-53.8-43.7h0Z"/>
    <path class="cls-2" d="M684.6,414l-72.3,46.6c-3.6,2.3-8.3,1.3-10.6-2.3h0c-2.3-3.6-1.3-8.3,2.3-10.6l72.3-46.6c3.6-2.3,8.3-1.3,10.6,2.3h0c2.3,3.6,1.3,8.3-2.3,10.6Z"/>
    <rect class="cls-2" x="498.6" y="838.8" width="10" height="142" transform="translate(-495.8 622.6) rotate(-45)"/>
    <rect class="cls-2" x="592.6" y="904.5" width="142" height="10" transform="translate(-448.8 735.6) rotate(-45)"/>
  </g>
</svg>