<?xml version="1.0" encoding="UTF-8"?>
<svg id="Ebene_2" data-name="Ebene 2" xmlns="http://www.w3.org/2000/svg" version="1.1" viewBox="0 0 1464.7 1135.5">
  <defs>
    <style>
      .cls-1 {
        fill: #211c18;
      }

      .cls-1, .cls-2, .cls-3, .cls-4, .cls-5, .cls-6, .cls-7, .cls-8, .cls-9 {
        stroke-width: 0px;
      }

      .cls-2 {
        fill: #a56e41;
      }

      .cls-3 {
        fill: #66401d;
      }

      .cls-4 {
        fill: #dbaf83;
      }

      .cls-5 {
        fill: #c65868;
      }

      .cls-6 {
        fill: #000;
      }

      .cls-7 {
        fill: #f7cca6;
      }

      .cls-8 {
        fill: #8e36b2;
      }

      .cls-9 {
        fill: #fff;
      }
    </style>
  </defs>
  <g id="Ebene_2-2" data-name="Ebene 2-2">
    <rect class="cls-9" x="263.3" y="190.7" width="907.3" height="944.9"/>
    <rect class="cls-2" x="409.3" y="268.5" width="606.2" height="590" rx="72.1" ry="72.1"/>
    <rect class="cls-4" x="575.5" y="797" width="274" height="131"/>
    <path class="cls-7" d="M521.6,399.5h381.7c14.4,0,26.2,11.7,26.2,26.1v204.4c0,119.8-97.2,217-217,217h0c-119.8,0-217-97.2-217-217v-204.4c0-14.4,11.7-26.1,26.1-26.1h0Z"/>
    <g id="Expression">
      <circle class="cls-1" cx="638.3" cy="558" r="31.5" transform="translate(-14.8 1098.7) rotate(-80.8)"/>
      <path class="cls-1" d="M820.3,558c0,17.4-14.1,31.5-31.5,31.5s-31.5-14.1-31.5-31.5,14.1-31.5,31.5-31.5,31.5,14.1,31.5,31.5Z"/>
    </g>
    <path class="cls-3" d="M569.9,504.5h110c4.2,0,7.7,3.4,7.7,7.7h0c0,4.2-3.4,7.7-7.7,7.7h-110c-4.2,0-7.7-3.4-7.7-7.7h0c0-4.2,3.4-7.7,7.7-7.7Z"/>
    <path class="cls-6" d="M621,686.5h182.9c3.6,0,6.6,2.9,6.6,6.6v29.8c0,41.2-33.5,74.7-74.7,74.7h-47c-41,0-74.4-33.3-74.4-74.4v-30.1c0-3.6,2.9-6.6,6.6-6.6h0Z"/>
    <path class="cls-9" d="M621,688.5h182.9c2.5,0,4.6,2,4.6,4.6v12.4h-192v-12.4c0-2.5,2-4.6,4.6-4.6Z"/>
    <path class="cls-5" d="M721,740.5h-17c-26.7,0-49,19.1-54,44.4,11.2,6.8,24.3,10.6,38.3,10.6h47c14.5,0,28-4.2,39.5-11.3-5.2-25-27.3-43.7-53.8-43.7Z"/>
    <path class="cls-3" d="M753.9,503h110c4.2,0,7.7,3.4,7.7,7.7h0c0,4.2-3.4,7.7-7.7,7.7h-110c-4.2,0-7.7-3.4-7.7-7.7h0c0-4.2,3.4-7.7,7.7-7.7Z"/>
    <path class="cls-8" d="M1042,1007.5v-37.2c0-33.3-27-60.3-60.3-60.3H443.2c-33.3,0-60.3,27-60.3,60.3v74.5c0,2,.1,4,.3,6v84.8h659v-128h-.3Z"/>
  </g>
</svg>